<?xml version="1.0" encoding="UTF-8" standalone="no"?>
<svg
   xmlns:dc="http://purl.org/dc/elements/1.1/"
   xmlns:cc="http://creativecommons.org/ns#"
   xmlns:rdf="http://www.w3.org/1999/02/22-rdf-syntax-ns#"
   xmlns:svg="http://www.w3.org/2000/svg"
   xmlns="http://www.w3.org/2000/svg"
   xmlns:sodipodi="http://sodipodi.sourceforge.net/DTD/sodipodi-0.dtd"
   xmlns:inkscape="http://www.inkscape.org/namespaces/inkscape"
   version="1.1"
   id="svg2"
   xml:space="preserve"
   width="793.70667"
   height="371.11066"
   viewBox="0 0 793.70667 371.11066"
   sodipodi:docname="logo.ai"><metadata
     id="metadata8"><rdf:RDF><cc:Work
         rdf:about=""><dc:format>image/svg+xml</dc:format><dc:type
           rdf:resource="http://purl.org/dc/dcmitype/StillImage" /></cc:Work></rdf:RDF></metadata><defs
     id="defs6"><clipPath
       clipPathUnits="userSpaceOnUse"
       id="clipPath18"><path
         d="M 0,278.333 H 595.28 V 0 H 0 Z"
         id="path16" /></clipPath><clipPath
       clipPathUnits="userSpaceOnUse"
       id="clipPath30"><path
         d="m 9.276,79.783 c -4.374,-4.375 -4.374,-11.466 0,-15.84 v 0 l 39.26,-39.262 c 4.373,-4.373 11.469,-4.373 15.843,0 v 0 c 4.373,4.375 4.373,11.468 0,15.842 v 0 l -39.263,39.26 c -2.187,2.188 -5.053,3.283 -7.919,3.283 v 0 c -2.867,0 -5.733,-1.095 -7.921,-3.283"
         id="path28" /></clipPath><clipPath
       clipPathUnits="userSpaceOnUse"
       id="clipPath42"><path
         d="M 0,278.333 H 595.28 V 0 H 0 Z"
         id="path40" /></clipPath><clipPath
       clipPathUnits="userSpaceOnUse"
       id="clipPath54"><path
         d="M 48.536,119.048 9.276,79.79 c -4.374,-4.375 -4.374,-11.466 0,-15.841 v 0 L 24.958,48.262 c -1.934,2.014 -3.125,4.749 -3.125,7.763 v 0 c 0,3.088 1.249,5.883 3.269,7.908 v 0 c 0.006,0.008 0.012,0.01 0.014,0.016 v 0 l 39.263,39.26 c 4.373,4.372 4.373,11.468 0,15.839 v 0 c -2.188,2.189 -5.055,3.282 -7.922,3.282 v 0 c -2.867,0 -5.735,-1.093 -7.921,-3.282 m -23.263,-71.1 -0.315,0.314 c 0.103,-0.107 0.208,-0.212 0.315,-0.314"
         id="path52" /></clipPath><clipPath
       clipPathUnits="userSpaceOnUse"
       id="clipPath66"><path
         d="M 0,278.333 H 595.28 V 0 H 0 Z"
         id="path64" /></clipPath><clipPath
       clipPathUnits="userSpaceOnUse"
       id="clipPath78"><path
         d="m 454.477,119.048 c -4.375,-4.372 -4.375,-11.467 0,-15.839 v 0 l 39.259,-39.26 c 4.373,-4.377 11.467,-4.377 15.842,0 v 0 c 4.375,4.375 4.375,11.466 0,15.841 v 0 l -39.261,39.258 c -2.188,2.189 -5.053,3.282 -7.92,3.282 v 0 c -2.87,0 -5.735,-1.093 -7.92,-3.282"
         id="path76" /></clipPath><clipPath
       clipPathUnits="userSpaceOnUse"
       id="clipPath90"><path
         d="M 0,278.333 H 595.28 V 0 H 0 Z"
         id="path88" /></clipPath><clipPath
       clipPathUnits="userSpaceOnUse"
       id="clipPath102"><path
         d="m 493.893,95.473 c -0.102,0.105 -0.205,0.21 -0.313,0.312 v 0 z m 3.127,-7.768 c 0,-3.087 -1.25,-5.882 -3.27,-7.908 v 0 c -0.004,-0.005 -0.008,-0.007 -0.014,-0.014 v 0 l -39.259,-39.26 c -4.375,-4.374 -4.375,-11.467 0,-15.842 v 0 c 4.373,-4.373 11.466,-4.373 15.84,0 v 0 l 39.261,39.262 c 4.375,4.374 4.375,11.465 0,15.84 v 0 l -15.685,15.69 c 1.935,-2.015 3.127,-4.75 3.127,-7.768"
         id="path100" /></clipPath><clipPath
       clipPathUnits="userSpaceOnUse"
       id="clipPath114"><path
         d="M 0,278.333 H 595.28 V 0 H 0 Z"
         id="path112" /></clipPath><clipPath
       clipPathUnits="userSpaceOnUse"
       id="clipPath126"><path
         d="M 116.298,138.557 71.44,29.105 C 69.244,23.748 71.809,17.626 77.167,15.43 v 0 c 5.358,-2.196 11.477,0.367 13.673,5.726 v 0 l 44.857,109.45 c 2.195,5.355 -0.365,11.475 -5.723,13.671 v 0 c -1.302,0.534 -2.649,0.787 -3.974,0.787 v 0 c -4.128,0 -8.04,-2.453 -9.702,-6.507"
         id="path124" /></clipPath><clipPath
       clipPathUnits="userSpaceOnUse"
       id="clipPath138"><path
         d="M 0,278.333 H 595.28 V 0 H 0 Z"
         id="path136" /></clipPath><clipPath
       clipPathUnits="userSpaceOnUse"
       id="clipPath172"><path
         d="m 9.276,220.922 c -4.374,-4.375 -4.374,-11.466 0,-15.84 v 0 l 39.26,-39.262 c 4.373,-4.373 11.469,-4.373 15.843,0 v 0 c 4.373,4.375 4.373,11.467 0,15.842 v 0 l -39.263,39.26 c -2.187,2.187 -5.053,3.281 -7.919,3.281 v 0 c -2.867,0 -5.733,-1.094 -7.921,-3.281"
         id="path170" /></clipPath><clipPath
       clipPathUnits="userSpaceOnUse"
       id="clipPath184"><path
         d="M 0,278.333 H 595.28 V 0 H 0 Z"
         id="path182" /></clipPath><clipPath
       clipPathUnits="userSpaceOnUse"
       id="clipPath196"><path
         d="m 48.536,260.188 -39.26,-39.26 c -4.374,-4.375 -4.374,-11.466 0,-15.842 v 0 L 24.958,189.4 c -1.934,2.014 -3.125,4.75 -3.125,7.763 v 0 c 0,3.089 1.249,5.884 3.269,7.909 v 0 c 0.006,0.007 0.012,0.01 0.014,0.014 v 0 l 39.263,39.261 c 4.373,4.373 4.373,11.468 0,15.841 v 0 c -2.188,2.188 -5.055,3.282 -7.922,3.282 v 0 c -2.867,0 -5.735,-1.094 -7.921,-3.282 M 25.273,189.085 24.958,189.4 c 0.103,-0.107 0.208,-0.212 0.315,-0.315"
         id="path194" /></clipPath><clipPath
       clipPathUnits="userSpaceOnUse"
       id="clipPath208"><path
         d="M 0,278.333 H 595.28 V 0 H 0 Z"
         id="path206" /></clipPath><clipPath
       clipPathUnits="userSpaceOnUse"
       id="clipPath220"><path
         d="m 530.9,260.188 c -4.375,-4.375 -4.375,-11.468 0,-15.841 v 0 l 39.26,-39.261 c 4.373,-4.375 11.469,-4.375 15.842,0 v 0 c 4.375,4.376 4.375,11.467 0,15.842 v 0 l -39.26,39.26 c -2.187,2.188 -5.054,3.282 -7.922,3.282 v 0 c -2.867,0 -5.734,-1.094 -7.92,-3.282"
         id="path218" /></clipPath><clipPath
       clipPathUnits="userSpaceOnUse"
       id="clipPath232"><path
         d="M 0,278.333 H 595.28 V 0 H 0 Z"
         id="path230" /></clipPath><clipPath
       clipPathUnits="userSpaceOnUse"
       id="clipPath244"><path
         d="m 570.316,236.611 c -0.101,0.105 -0.207,0.211 -0.312,0.312 v 0 z m 3.129,-7.767 c 0,-3.087 -1.252,-5.882 -3.272,-7.908 v 0 c -0.003,-0.004 -0.007,-0.008 -0.013,-0.014 v 0 l -39.26,-39.26 c -4.375,-4.375 -4.375,-11.467 0,-15.842 v 0 c 4.373,-4.373 11.467,-4.373 15.842,0 v 0 l 39.26,39.262 c 4.375,4.374 4.375,11.465 0,15.84 v 0 l -15.686,15.689 c 1.935,-2.015 3.129,-4.751 3.129,-7.767"
         id="path242" /></clipPath><clipPath
       clipPathUnits="userSpaceOnUse"
       id="clipPath256"><path
         d="M 0,278.333 H 595.28 V 0 H 0 Z"
         id="path254" /></clipPath></defs><sodipodi:namedview
     pagecolor="#ffffff"
     bordercolor="#666666"
     borderopacity="1"
     objecttolerance="10"
     gridtolerance="10"
     guidetolerance="10"
     inkscape:pageopacity="0"
     inkscape:pageshadow="2"
     inkscape:window-width="640"
     inkscape:window-height="480"
     id="namedview4" /><g
     id="g10"
     inkscape:groupmode="layer"
     inkscape:label="logo"
     transform="matrix(1.3333333,0,0,-1.3333333,0,371.11067)"><g
       id="g12"><g
         id="g14"
         clip-path="url(#clipPath18)"><g
           id="g20"
           transform="translate(9.2764,79.7832)"><path
             d="m 0,0 c -4.375,-4.375 -4.375,-11.466 0,-15.84 l 39.26,-39.263 c 4.373,-4.373 11.468,-4.373 15.843,0 4.373,4.375 4.373,11.469 0,15.843 L 15.84,0 C 13.653,2.188 10.787,3.282 7.92,3.282 5.054,3.282 2.188,2.188 0,0"
             style="fill:#ffffff;fill-opacity:1;fill-rule:nonzero;stroke:none"
             id="path22" /></g></g></g><g
       id="g24"><g
         id="g26"
         clip-path="url(#clipPath30)"><g
           id="g32"
           transform="translate(36.8257,114.9902)"><path
             d="M 0,0 63.303,-63.305 0,-126.606 -63.303,-63.305 Z"
             style="fill:#ffffff;fill-opacity:1;fill-rule:nonzero;stroke:none"
             id="path34" /></g></g></g><g
       id="g36"><g
         id="g38"
         clip-path="url(#clipPath42)"><g
           id="g44"
           transform="translate(48.5361,119.0479)"><path
             d="m 0,0 -39.26,-39.259 c -4.374,-4.374 -4.374,-11.466 0,-15.841 l 15.681,-15.686 c -1.934,2.014 -3.124,4.749 -3.124,7.764 0,3.087 1.249,5.882 3.269,7.908 0.006,0.007 0.012,0.01 0.015,0.014 l 39.262,39.261 c 4.373,4.372 4.373,11.468 0,15.839 C 13.655,2.189 10.787,3.282 7.921,3.282 5.054,3.282 2.186,2.189 0,0 m -23.264,-71.1 -0.315,0.314 c 0.104,-0.107 0.208,-0.212 0.315,-0.314"
             style="fill:#008bcd;fill-opacity:1;fill-rule:nonzero;stroke:none"
             id="path46" /></g></g></g><g
       id="g48"><g
         id="g50"
         clip-path="url(#clipPath54)"><g
           id="g56"
           transform="translate(-32.2915,85.1396)"><path
             d="M 0,0 69.117,69.116 138.234,0 69.117,-69.118 Z"
             style="fill:#008bcd;fill-opacity:1;fill-rule:nonzero;stroke:none"
             id="path58" /></g></g></g><g
       id="g60"><g
         id="g62"
         clip-path="url(#clipPath66)"><g
           id="g68"
           transform="translate(454.4766,119.0479)"><path
             d="M 0,0 C -4.375,-4.372 -4.375,-11.467 0,-15.839 L 39.26,-55.1 c 4.373,-4.376 11.467,-4.376 15.842,0 4.375,4.375 4.375,11.467 0,15.841 L 15.84,0 C 13.652,2.189 10.787,3.282 7.92,3.282 5.051,3.282 2.186,2.189 0,0"
             style="fill:#ffffff;fill-opacity:1;fill-rule:nonzero;stroke:none"
             id="path70" /></g></g></g><g
       id="g72"><g
         id="g74"
         clip-path="url(#clipPath78)"><g
           id="g80"
           transform="translate(482.0254,154.2568)"><path
             d="M 0,0 63.307,-63.305 0,-126.61 -63.303,-63.305 Z"
             style="fill:#ffffff;fill-opacity:1;fill-rule:nonzero;stroke:none"
             id="path82" /></g></g></g><g
       id="g84"><g
         id="g86"
         clip-path="url(#clipPath90)"><g
           id="g92"
           transform="translate(493.8926,95.4727)"><path
             d="m 0,0 c -0.102,0.105 -0.205,0.21 -0.313,0.313 z m 3.127,-7.768 c 0,-3.086 -1.25,-5.882 -3.27,-7.908 -0.003,-0.005 -0.007,-0.008 -0.013,-0.013 l -39.26,-39.26 c -4.375,-4.374 -4.375,-11.468 0,-15.843 4.373,-4.373 11.467,-4.373 15.84,0 l 39.262,39.263 c 4.375,4.374 4.375,11.465 0,15.84 L 0,0 c 1.936,-2.015 3.127,-4.75 3.127,-7.768"
             style="fill:#008bcd;fill-opacity:1;fill-rule:nonzero;stroke:none"
             id="path94" /></g></g></g><g
       id="g96"><g
         id="g98"
         clip-path="url(#clipPath102)"><g
           id="g104"
           transform="translate(412.3613,58.0469)"><path
             d="M 0,0 69.664,69.664 139.33,0 69.664,-69.664 Z"
             style="fill:#008bcd;fill-opacity:1;fill-rule:nonzero;stroke:none"
             id="path106" /></g></g></g><g
       id="g108"><g
         id="g110"
         clip-path="url(#clipPath114)"><g
           id="g116"
           transform="translate(71.4404,29.1055)"><path
             d="m 0,0 c -2.196,-5.357 0.369,-11.479 5.727,-13.675 5.358,-2.196 11.477,0.366 13.672,5.726 l 44.858,109.45 c 2.194,5.354 -0.365,11.475 -5.723,13.671 -5.358,2.196 -11.482,-0.364 -13.676,-5.721 z"
             style="fill:#ffffff;fill-opacity:1;fill-rule:nonzero;stroke:none"
             id="path118" /></g></g></g><g
       id="g120"><g
         id="g122"
         clip-path="url(#clipPath126)"><g
           id="g128"
           transform="translate(67.4653,19.4063)"><path
             d="M 0,0 52.808,128.848 72.205,120.897 19.398,-7.95 Z"
             style="fill:#ffffff;fill-opacity:1;fill-rule:nonzero;stroke:none"
             id="path130" /></g></g></g><g
       id="g132"><g
         id="g134"
         clip-path="url(#clipPath138)"><g
           id="g140"
           transform="translate(171.1611,67.0186)"><path
             d="m 0,0 h -6.958 c -1.233,0 -2.41,-0.073 -3.533,-0.218 -1.124,-0.145 -2.103,-0.434 -2.935,-0.869 -0.834,-0.435 -1.487,-1.052 -1.957,-1.849 -0.472,-0.797 -0.706,-1.847 -0.706,-3.152 0,-2.103 0.742,-3.625 2.228,-4.566 1.485,-0.943 3.061,-1.413 4.729,-1.413 1.811,0 3.55,0.289 5.218,0.87 1.667,0.579 2.971,1.231 3.914,1.956 z m -29.026,13.372 v 15.981 c 3.984,0.796 7.971,1.43 11.958,1.902 3.985,0.471 7.719,0.707 11.197,0.707 3.551,0 6.704,-0.255 9.459,-0.761 2.753,-0.509 5.072,-1.451 6.957,-2.827 1.884,-1.378 3.316,-3.244 4.294,-5.599 0.979,-2.356 1.468,-5.419 1.468,-9.186 v -23.591 h 5.762 v -13.48 H 0 v 5.435 h -0.217 c -2.321,-2.465 -4.803,-4.204 -7.447,-5.218 -2.647,-1.014 -5.599,-1.414 -8.86,-1.196 -4.784,0.073 -8.607,1.631 -11.47,4.675 -2.864,3.044 -4.294,7.066 -4.294,12.067 0,3.55 0.742,6.469 2.228,8.751 1.485,2.283 3.352,4.059 5.6,5.327 2.245,1.268 4.71,2.137 7.392,2.61 2.68,0.47 5.181,0.707 7.501,0.707 H 0 v 2.934 c 0,2.463 -0.834,4.059 -2.5,4.785 -1.668,0.723 -4.06,1.086 -7.175,1.086 -0.87,0 -1.777,-0.038 -2.718,-0.109 -0.943,-0.072 -1.995,-0.182 -3.153,-0.326 v -4.674 z"
             style="fill:#ee2975;fill-opacity:1;fill-rule:nonzero;stroke:none"
             id="path142" /></g><path
           d="m 214.864,103.981 h -16.307 v 15.654 h 16.307 z m -23.265,-6.087 h 23.265 V 37.448 c 0,-2.68 -0.255,-5.055 -0.761,-7.121 -0.508,-2.065 -1.414,-3.805 -2.718,-5.218 -1.304,-1.413 -3.117,-2.501 -5.436,-3.261 -2.32,-0.761 -5.291,-1.142 -8.914,-1.142 -1.522,0 -3.153,0.092 -4.892,0.272 -1.74,0.182 -3.406,0.418 -5.001,0.707 l 1.522,12.502 c 0.869,-0.145 1.702,-0.272 2.5,-0.38 0.797,-0.11 1.485,-0.163 2.065,-0.163 2.029,0 3.425,0.326 4.186,0.977 0.761,0.652 1.142,1.995 1.142,4.023 v 45.769 h -6.958 z"
           style="fill:#ee2975;fill-opacity:1;fill-rule:nonzero;stroke:none"
           id="path144" /><g
           id="g146"
           transform="translate(220.0815,97.8936)"><path
             d="m 0,0 h 22.178 v -33.267 c 0,-3.044 0.669,-5.255 2.011,-6.631 1.34,-1.378 3.207,-2.066 5.599,-2.066 1.81,0 3.55,0.343 5.218,1.032 1.666,0.689 3.115,1.395 4.348,2.12 V -13.48 H 33.049 V 0 h 22.613 v -40.877 h 5.761 v -13.48 H 39.354 v 6.74 h -0.217 c -2.247,-2.465 -4.766,-4.386 -7.555,-5.762 -2.791,-1.376 -5.926,-2.065 -9.404,-2.065 -5.436,0 -9.513,1.647 -12.231,4.946 -2.718,3.297 -4.076,7.773 -4.076,13.426 v 23.592 l -5.871,0 z"
             style="fill:#ee2975;fill-opacity:1;fill-rule:nonzero;stroke:none"
             id="path148" /></g><g
           id="g150"
           transform="translate(300.8574,70.7148)"><path
             d="m 0,0 c 0,-2.104 0.145,-4.06 0.435,-5.871 0.289,-1.813 0.778,-3.37 1.467,-4.675 0.688,-1.304 1.613,-2.337 2.773,-3.098 1.158,-0.761 2.644,-1.141 4.457,-1.141 1.957,0 3.604,0.307 4.946,0.924 1.341,0.615 2.409,1.213 3.207,1.794 v 24.134 c -0.798,0.579 -1.866,1.177 -3.207,1.794 -1.342,0.615 -2.989,0.924 -4.946,0.924 -1.813,0 -3.299,-0.381 -4.457,-1.141 C 3.515,12.883 2.59,11.85 1.902,10.545 1.213,9.24 0.724,7.681 0.435,5.87 0.145,4.058 0,2.101 0,0 m 11.415,48.921 h 22.178 v -62.619 h 5.761 V -27.179 H 17.285 v 5.436 h -0.217 c -1.669,-1.886 -3.824,-3.444 -6.468,-4.675 -2.647,-1.231 -5.382,-1.848 -8.208,-1.848 -3.843,0 -7.013,0.761 -9.514,2.284 -2.5,1.521 -4.511,3.568 -6.033,6.141 -1.522,2.572 -2.592,5.562 -3.207,8.969 -0.617,3.406 -0.924,7.029 -0.924,10.872 0,3.768 0.362,7.374 1.087,10.816 0.723,3.443 1.903,6.451 3.533,9.024 1.631,2.572 3.751,4.621 6.36,6.142 2.609,1.523 5.833,2.284 9.676,2.284 2.536,0 5.036,-0.544 7.501,-1.631 2.463,-1.087 4.528,-2.573 6.197,-4.457 h 0.217 V 35.44 h -5.87 z"
             style="fill:#ee2975;fill-opacity:1;fill-rule:nonzero;stroke:none"
             id="path152" /></g><g
           id="g154"
           transform="translate(375.2178,67.0186)"><path
             d="m 0,0 h -6.958 c -1.232,0 -2.41,-0.073 -3.533,-0.218 -1.124,-0.145 -2.103,-0.434 -2.935,-0.869 -0.834,-0.435 -1.486,-1.052 -1.957,-1.849 -0.472,-0.797 -0.707,-1.847 -0.707,-3.152 0,-2.103 0.742,-3.625 2.229,-4.566 1.485,-0.943 3.061,-1.413 4.729,-1.413 1.811,0 3.55,0.289 5.218,0.87 1.667,0.579 2.972,1.231 3.914,1.956 z m -29.026,13.372 v 15.981 c 3.984,0.796 7.971,1.43 11.958,1.902 3.985,0.471 7.718,0.707 11.198,0.707 3.55,0 6.702,-0.255 9.458,-0.761 2.753,-0.509 5.072,-1.451 6.957,-2.827 1.884,-1.378 3.316,-3.244 4.295,-5.599 0.978,-2.356 1.468,-5.419 1.468,-9.186 v -23.591 h 5.761 v -13.48 H 0 v 5.435 h -0.218 c -2.32,-2.465 -4.802,-4.204 -7.446,-5.218 -2.647,-1.014 -5.599,-1.414 -8.86,-1.196 -4.784,0.073 -8.608,1.631 -11.47,4.675 -2.863,3.044 -4.294,7.066 -4.294,12.067 0,3.55 0.742,6.469 2.228,8.751 1.485,2.283 3.352,4.059 5.599,5.327 2.246,1.268 4.711,2.137 7.393,2.61 2.68,0.47 5.181,0.707 7.502,0.707 H 0 v 2.934 c 0,2.463 -0.834,4.059 -2.5,4.785 -1.668,0.723 -4.061,1.086 -7.176,1.086 -0.869,0 -1.776,-0.038 -2.718,-0.109 -0.942,-0.072 -1.994,-0.182 -3.152,-0.326 v -4.674 z"
             style="fill:#ee2975;fill-opacity:1;fill-rule:nonzero;stroke:none"
             id="path156" /></g><g
           id="g158"
           transform="translate(400.0039,97.8936)"><path
             d="m 0,0 h 22.178 v -8.697 h 0.217 c 0.723,1.231 1.667,2.426 2.827,3.587 1.158,1.159 2.5,2.21 4.022,3.153 1.522,0.94 3.224,1.685 5.11,2.228 1.883,0.544 3.914,0.816 6.087,0.816 v -15.329 c -3.478,0 -6.848,-0.29 -10.11,-0.869 -3.262,-0.581 -5.979,-1.378 -8.153,-2.392 v -23.374 h 6.088 v -13.48 H 0 v 13.48 H 5.87 V -13.48 H 0 Z"
             style="fill:#ee2975;fill-opacity:1;fill-rule:nonzero;stroke:none"
             id="path160" /></g><g
           id="g162"
           transform="translate(9.2764,220.9219)"><path
             d="m 0,0 c -4.375,-4.375 -4.375,-11.465 0,-15.84 l 39.26,-39.263 c 4.373,-4.373 11.468,-4.373 15.843,0 4.373,4.375 4.373,11.468 0,15.843 L 15.84,0 C 13.653,2.187 10.787,3.282 7.92,3.282 5.054,3.282 2.188,2.187 0,0"
             style="fill:#ffffff;fill-opacity:1;fill-rule:nonzero;stroke:none"
             id="path164" /></g></g></g><g
       id="g166"><g
         id="g168"
         clip-path="url(#clipPath172)"><g
           id="g174"
           transform="translate(36.8257,256.1284)"><path
             d="M 0,0 63.303,-63.304 0,-126.607 -63.303,-63.304 Z"
             style="fill:#ffffff;fill-opacity:1;fill-rule:nonzero;stroke:none"
             id="path176" /></g></g></g><g
       id="g178"><g
         id="g180"
         clip-path="url(#clipPath184)"><g
           id="g186"
           transform="translate(48.5361,260.188)"><path
             d="m 0,0 -39.26,-39.26 c -4.374,-4.374 -4.374,-11.467 0,-15.842 l 15.681,-15.686 c -1.934,2.014 -3.124,4.749 -3.124,7.763 0,3.089 1.249,5.884 3.269,7.909 0.006,0.007 0.012,0.01 0.015,0.014 l 39.262,39.261 c 4.373,4.374 4.373,11.468 0,15.841 C 13.655,2.188 10.787,3.281 7.921,3.281 5.054,3.281 2.186,2.188 0,0 m -23.264,-71.102 -0.315,0.314 c 0.104,-0.107 0.208,-0.212 0.315,-0.314"
             style="fill:#008bcd;fill-opacity:1;fill-rule:nonzero;stroke:none"
             id="path188" /></g></g></g><g
       id="g190"><g
         id="g192"
         clip-path="url(#clipPath196)"><g
           id="g198"
           transform="translate(-32.2915,226.2778)"><path
             d="M 0,0 69.117,69.116 138.234,0 69.117,-69.117 Z"
             style="fill:#008bcd;fill-opacity:1;fill-rule:nonzero;stroke:none"
             id="path200" /></g></g></g><g
       id="g202"><g
         id="g204"
         clip-path="url(#clipPath208)"><g
           id="g210"
           transform="translate(530.9004,260.188)"><path
             d="m 0,0 c -4.375,-4.375 -4.375,-11.467 0,-15.841 l 39.26,-39.261 c 4.373,-4.375 11.469,-4.375 15.842,0 4.375,4.375 4.375,11.468 0,15.842 L 15.842,0 C 13.654,2.188 10.787,3.281 7.92,3.281 5.053,3.281 2.186,2.188 0,0"
             style="fill:#ffffff;fill-opacity:1;fill-rule:nonzero;stroke:none"
             id="path212" /></g></g></g><g
       id="g214"><g
         id="g216"
         clip-path="url(#clipPath220)"><g
           id="g222"
           transform="translate(558.4492,295.395)"><path
             d="M 0,0 63.307,-63.305 0,-126.61 -63.303,-63.305 Z"
             style="fill:#ffffff;fill-opacity:1;fill-rule:nonzero;stroke:none"
             id="path224" /></g></g></g><g
       id="g226"><g
         id="g228"
         clip-path="url(#clipPath232)"><g
           id="g234"
           transform="translate(570.3164,236.6108)"><path
             d="m 0,0 c -0.102,0.105 -0.207,0.21 -0.313,0.313 z m 3.129,-7.767 c 0,-3.087 -1.252,-5.881 -3.272,-7.908 -0.003,-0.004 -0.007,-0.008 -0.013,-0.014 l -39.26,-39.26 c -4.375,-4.375 -4.375,-11.468 0,-15.843 4.373,-4.373 11.467,-4.373 15.842,0 l 39.26,39.263 c 4.375,4.375 4.375,11.466 0,15.84 L 0,0 c 1.936,-2.015 3.129,-4.751 3.129,-7.767"
             style="fill:#008bcd;fill-opacity:1;fill-rule:nonzero;stroke:none"
             id="path236" /></g></g></g><g
       id="g238"><g
         id="g240"
         clip-path="url(#clipPath244)"><g
           id="g246"
           transform="translate(488.7852,199.1855)"><path
             d="M 0,0 69.664,69.665 139.33,0 69.664,-69.664 Z"
             style="fill:#008bcd;fill-opacity:1;fill-rule:nonzero;stroke:none"
             id="path248" /></g></g></g><g
       id="g250"><g
         id="g252"
         clip-path="url(#clipPath256)"><g
           id="g258"
           transform="translate(120.894,211.8545)"><path
             d="m 0,0 c 0,2.101 -0.146,4.058 -0.435,5.87 -0.29,1.811 -0.779,3.371 -1.467,4.675 -0.69,1.305 -1.614,2.337 -2.772,3.099 -1.16,0.76 -2.647,1.141 -4.458,1.141 -1.957,0 -3.606,-0.309 -4.946,-0.924 -1.342,-0.617 -2.411,-1.215 -3.207,-1.794 v -24.134 c 0.796,-0.581 1.865,-1.179 3.207,-1.794 1.34,-0.618 2.989,-0.924 4.946,-0.924 1.811,0 3.298,0.38 4.458,1.14 1.158,0.762 2.082,1.794 2.772,3.099 0.688,1.305 1.177,2.862 1.467,4.675 C -0.146,-4.06 0,-2.103 0,0 m -39.463,27.178 h 22.178 v -5.435 h 0.217 c 1.667,1.883 3.822,3.441 6.468,4.674 2.645,1.232 5.345,1.849 8.1,1.849 3.768,0 6.92,-0.762 9.458,-2.284 2.536,-1.522 4.566,-3.57 6.088,-6.142 1.522,-2.573 2.609,-5.582 3.261,-9.023 C 16.959,7.374 17.286,3.768 17.286,0 c 0,-3.843 -0.364,-7.466 -1.087,-10.872 -0.726,-3.407 -1.903,-6.397 -3.533,-8.969 -1.631,-2.573 -3.77,-4.62 -6.415,-6.142 -2.646,-1.522 -5.854,-2.283 -9.621,-2.283 -2.609,0 -5.128,0.543 -7.556,1.63 -2.428,1.088 -4.475,2.573 -6.142,4.458 h -0.217 v -13.263 h 5.87 v -13.481 h -28.048 v 13.481 h 5.871 v 49.139 h -5.871 z"
             style="fill:#ee2975;fill-opacity:1;fill-rule:nonzero;stroke:none"
             id="path260" /></g><g
           id="g262"
           transform="translate(170.9023,226.6396)"><path
             d="m 0,0 c -3.842,0 -6.433,-1.305 -7.773,-3.914 -1.342,-2.609 -2.011,-6.234 -2.011,-10.871 0,-2.321 0.144,-4.403 0.434,-6.252 0.289,-1.848 0.816,-3.407 1.577,-4.674 0.761,-1.269 1.775,-2.229 3.044,-2.881 1.267,-0.652 2.843,-0.978 4.729,-0.978 3.768,0 6.341,1.266 7.719,3.804 1.376,2.537 2.065,6.197 2.065,10.981 0,4.637 -0.689,8.262 -2.065,10.871 C 6.341,-1.305 3.768,0 0,0 m 0,-43.051 c -4.93,0 -9.115,0.671 -12.557,2.011 -3.443,1.34 -6.234,3.224 -8.371,5.653 -2.138,2.427 -3.696,5.381 -4.674,8.861 -0.979,3.478 -1.468,7.392 -1.468,11.741 0,4.348 0.489,8.262 1.468,11.741 0.978,3.479 2.536,6.431 4.674,8.86 2.137,2.427 4.928,4.311 8.371,5.653 3.442,1.341 7.627,2.011 12.557,2.011 4.928,0 9.113,-0.67 12.556,-2.011 3.442,-1.342 6.233,-3.226 8.371,-5.653 2.137,-2.429 3.697,-5.381 4.675,-8.86 0.979,-3.479 1.468,-7.393 1.468,-11.741 0,-4.349 -0.489,-8.263 -1.468,-11.741 -0.978,-3.48 -2.538,-6.434 -4.675,-8.861 C 18.789,-37.816 15.998,-39.7 12.556,-41.04 9.113,-42.38 4.928,-43.051 0,-43.051"
             style="fill:#ee2975;fill-opacity:1;fill-rule:nonzero;stroke:none"
             id="path264" /></g><g
           id="g266"
           transform="translate(220.9097,211.8545)"><path
             d="m 0,0 c 0,-2.103 0.144,-4.06 0.435,-5.871 0.289,-1.813 0.777,-3.37 1.467,-4.675 0.688,-1.305 1.612,-2.337 2.772,-3.099 1.159,-0.76 2.645,-1.14 4.458,-1.14 1.957,0 3.604,0.306 4.946,0.924 1.34,0.615 2.409,1.213 3.207,1.794 v 24.134 c -0.798,0.579 -1.867,1.177 -3.207,1.794 -1.342,0.615 -2.989,0.924 -4.946,0.924 -1.813,0 -3.299,-0.381 -4.458,-1.141 C 3.514,12.882 2.59,11.85 1.902,10.545 1.212,9.241 0.724,7.681 0.435,5.87 0.144,4.058 0,2.101 0,0 m 11.415,48.921 h 22.177 v -62.619 h 5.762 V -27.179 H 17.285 v 5.436 h -0.217 c -1.668,-1.886 -3.824,-3.444 -6.468,-4.675 -2.647,-1.231 -5.382,-1.848 -8.208,-1.848 -3.843,0 -7.013,0.761 -9.513,2.283 -2.501,1.522 -4.512,3.569 -6.034,6.142 -1.522,2.572 -2.592,5.562 -3.207,8.969 -0.617,3.406 -0.924,7.029 -0.924,10.872 0,3.768 0.362,7.374 1.087,10.817 0.724,3.441 1.903,6.45 3.533,9.023 1.631,2.572 3.751,4.62 6.36,6.142 2.61,1.522 5.833,2.284 9.676,2.284 2.536,0 5.036,-0.544 7.501,-1.631 2.463,-1.087 4.529,-2.573 6.197,-4.458 h 0.217 V 35.44 h -5.87 z"
             style="fill:#ee2975;fill-opacity:1;fill-rule:nonzero;stroke:none"
             id="path268" /></g><g
           id="g270"
           transform="translate(290.0527,227.6177)"><path
             d="M 0,0 C -6.378,0 -9.857,-3.117 -10.437,-9.349 H 7.936 C 8.371,-6.74 8.081,-4.53 7.066,-2.718 6.05,-0.907 3.696,0 0,0 m -10.437,-19.459 c 0.218,-3.48 1.503,-6.198 3.86,-8.155 2.354,-1.956 5.707,-2.934 10.056,-2.934 2.174,0 4.602,0.09 7.284,0.271 2.68,0.18 5.871,0.816 9.567,1.902 l 1.957,-13.045 c -3.696,-1.016 -7.267,-1.703 -10.709,-2.066 -3.443,-0.361 -6.941,-0.543 -10.491,-0.543 -5.364,0 -9.876,0.671 -13.535,2.011 -3.66,1.34 -6.615,3.224 -8.86,5.653 -2.248,2.427 -3.878,5.381 -4.892,8.861 -1.016,3.478 -1.522,7.392 -1.522,11.741 0,4.348 0.506,8.262 1.522,11.741 1.014,3.479 2.644,6.431 4.892,8.86 2.245,2.427 5.2,4.311 8.86,5.653 3.659,1.341 8.135,2.011 13.426,2.011 5.871,0 10.492,-0.888 13.862,-2.663 3.37,-1.777 5.833,-4.131 7.392,-7.067 1.558,-2.935 2.392,-6.342 2.5,-10.219 0.11,-3.878 -0.127,-7.882 -0.706,-12.012 z"
             style="fill:#ee2975;fill-opacity:1;fill-rule:nonzero;stroke:none"
             id="path272" /></g><g
           id="g274"
           transform="translate(352.4551,198.1563)"><path
             d="m 0,0 h 4.893 v 20.438 c -0.365,5.363 -2.901,8.045 -7.611,8.045 -1.739,0 -3.388,-0.345 -4.946,-1.033 -1.56,-0.689 -2.954,-1.396 -4.186,-2.119 V 0 h 4.892 V -13.48 H -34.027 V 0 h 5.87 v 27.396 h -5.87 v 13.48 h 22.177 v -6.849 h 0.217 c 1.667,1.885 3.515,3.496 5.545,4.838 2.028,1.341 4.312,2.229 6.849,2.664 1.593,0.288 3.224,0.397 4.892,0.326 3.479,-0.073 6.341,-0.87 8.588,-2.392 2.246,-1.522 3.914,-3.588 5.001,-6.196 3.044,3.261 6.051,5.525 9.024,6.794 2.97,1.268 6.196,1.903 9.675,1.903 5.436,0 9.513,-1.685 12.231,-5.055 2.718,-3.37 4.076,-7.811 4.076,-13.318 V 0 H 60.01 V -13.48 H 33.049 V 0 h 4.892 v 19.786 c 0,3.044 -0.67,5.254 -2.011,6.631 -1.342,1.376 -3.207,2.066 -5.599,2.066 -1.739,0 -3.407,-0.345 -5.001,-1.033 -1.595,-0.689 -3.008,-1.431 -4.239,-2.228 0.071,-0.799 0.108,-1.576 0.108,-2.338 V 20.547 0 h 4.893 V -13.48 L 0,-13.48 Z"
             style="fill:#ee2975;fill-opacity:1;fill-rule:nonzero;stroke:none"
             id="path276" /></g><g
           id="g278"
           transform="translate(441.6016,226.6396)"><path
             d="m 0,0 c -3.843,0 -6.433,-1.305 -7.773,-3.914 -1.342,-2.609 -2.011,-6.234 -2.011,-10.871 0,-2.321 0.144,-4.403 0.434,-6.252 0.289,-1.848 0.816,-3.407 1.577,-4.674 0.761,-1.269 1.775,-2.229 3.044,-2.881 1.267,-0.652 2.843,-0.978 4.729,-0.978 3.768,0 6.341,1.266 7.719,3.804 1.376,2.537 2.065,6.197 2.065,10.981 0,4.637 -0.689,8.262 -2.065,10.871 C 6.341,-1.305 3.768,0 0,0 m 0,-43.051 c -4.93,0 -9.115,0.671 -12.557,2.011 -3.443,1.34 -6.234,3.224 -8.371,5.653 -2.138,2.427 -3.696,5.381 -4.675,8.861 -0.978,3.478 -1.467,7.392 -1.467,11.741 0,4.348 0.489,8.262 1.467,11.741 0.979,3.479 2.537,6.431 4.675,8.86 2.137,2.427 4.928,4.311 8.371,5.653 3.442,1.341 7.627,2.011 12.557,2.011 4.928,0 9.113,-0.67 12.557,-2.011 3.441,-1.342 6.232,-3.226 8.371,-5.653 2.136,-2.429 3.696,-5.381 4.674,-8.86 0.978,-3.479 1.467,-7.393 1.467,-11.741 0,-4.349 -0.489,-8.263 -1.467,-11.741 -0.978,-3.48 -2.538,-6.434 -4.674,-8.861 -2.139,-2.429 -4.93,-4.313 -8.371,-5.653 C 9.113,-42.38 4.928,-43.051 0,-43.051"
             style="fill:#ee2975;fill-opacity:1;fill-rule:nonzero;stroke:none"
             id="path280" /></g><g
           id="g282"
           transform="translate(504.8721,221.5298)"><path
             d="m 0,0 v 4.892 c -1.813,0.362 -3.479,0.579 -5,0.652 -1.522,0.072 -2.827,0.109 -3.914,0.109 -2.465,0 -4.223,-0.344 -5.273,-1.032 -1.051,-0.69 -1.576,-1.506 -1.576,-2.447 0,-1.015 0.543,-1.794 1.63,-2.337 1.088,-0.544 3.007,-1.142 5.763,-1.794 2.463,-0.581 5.091,-1.196 7.881,-1.848 2.79,-0.652 5.363,-1.613 7.718,-2.881 2.355,-1.269 4.312,-2.935 5.872,-5.001 1.557,-2.065 2.337,-4.802 2.337,-8.208 0,-3.117 -0.527,-5.816 -1.577,-8.099 -1.051,-2.283 -2.554,-4.15 -4.511,-5.599 -1.957,-1.45 -4.294,-2.537 -7.012,-3.261 -2.718,-0.724 -5.745,-1.087 -9.078,-1.087 -4.494,0 -9.042,0.235 -13.644,0.706 -4.602,0.471 -8.534,1.105 -11.795,1.902 v 15.982 h 13.481 v -4.893 c 2.028,-0.363 3.894,-0.581 5.598,-0.652 1.703,-0.072 3.17,-0.108 4.404,-0.108 2.753,0 4.746,0.397 5.978,1.196 1.232,0.796 1.849,1.701 1.849,2.718 0,1.158 -0.726,1.973 -2.175,2.445 -1.45,0.471 -3.37,0.925 -5.762,1.359 -3.189,0.506 -6.196,1.196 -9.023,2.066 -2.826,0.87 -5.291,2.047 -7.393,3.533 -2.102,1.485 -3.768,3.316 -5,5.49 -1.233,2.175 -1.848,4.82 -1.848,7.936 0,3.116 0.525,5.743 1.576,7.882 1.05,2.137 2.555,3.877 4.512,5.218 1.957,1.341 4.294,2.301 7.012,2.881 2.718,0.58 5.743,0.87 9.077,0.87 4.567,0 8.788,-0.236 12.665,-0.707 3.877,-0.472 7.448,-1.105 10.709,-1.902 L 13.481,0 Z"
             style="fill:#ee2975;fill-opacity:1;fill-rule:nonzero;stroke:none"
             id="path284" /></g></g></g></g></svg>
